<?xml version="1.0" standalone="no"?>
<!DOCTYPE svg PUBLIC "-//W3C//DTD SVG 20010904//EN"
 "http://www.w3.org/TR/2001/REC-SVG-20010904/DTD/svg10.dtd">
<svg version="1.0" xmlns="http://www.w3.org/2000/svg"
 width="662.000000pt" height="662.000000pt" viewBox="0 0 662.000000 662.000000"
 preserveAspectRatio="xMidYMid meet">
<metadata>
Created by potrace 1.14, written by Peter Selinger 2001-2017
</metadata>
<g transform="translate(0.000000,662.000000) scale(0.100000,-0.100000)"
fill="#000000" stroke="none">
<path d="M0 3310 l0 -3300 3310 0 3310 0 0 3300 0 3300 -3310 0 -3310 0 0
-3300z m5491 2470 c12 -7 19 -21 19 -40 0 -31 23 -4 -603 -715 l-255 -290 23
-27 c32 -38 40 -106 20 -174 -16 -56 -32 -77 -224 -294 -41 -47 -83 -94 -93
-106 -18 -20 -18 -24 -2 -84 12 -46 15 -91 12 -159 -5 -108 -28 -180 -83 -261
l-34 -50 110 0 c65 0 109 -4 109 -10 0 -5 43 -67 95 -137 52 -71 94 -132 92
-136 -1 -5 -45 -67 -97 -137 l-95 -129 -345 6 -345 5 -481 -547 -480 -548 89
-81 c112 -101 116 -106 94 -140 -34 -52 -56 -40 -272 149 -189 166 -200 174
-217 157 -44 -45 -288 -327 -288 -333 0 -4 39 -42 88 -85 48 -42 90 -85 94
-94 12 -31 -14 -65 -49 -65 -26 0 -78 42 -349 280 -401 351 -424 373 -424 398
0 27 28 57 54 57 12 0 60 -35 111 -80 50 -44 93 -80 96 -80 6 0 259 283 297
332 11 14 -9 36 -170 178 -101 90 -195 176 -210 191 -32 33 -35 60 -12 83 31
32 60 19 165 -74 57 -49 106 -86 110 -82 4 4 80 90 169 192 l162 185 -168 3
-169 3 -95 129 c-52 71 -95 134 -95 140 0 6 43 69 95 140 l95 129 410 1 410 1
328 374 c344 392 379 425 495 468 46 18 81 22 187 23 l130 2 150 168 c83 93
166 179 184 191 69 47 181 55 223 16 13 -11 22 -14 26 -7 4 6 198 228 431 492
278 316 431 482 443 482 11 0 28 -5 39 -10z"/>
<path d="M4425 4733 c-12 -2 -33 -14 -47 -26 -30 -25 -298 -328 -298 -338 0
-3 35 -36 78 -74 42 -38 87 -77 98 -87 l22 -19 146 165 c151 170 182 218 171
265 -8 31 -108 122 -133 120 -9 -1 -26 -4 -37 -6z"/>
<path d="M3721 4320 c-30 -11 -72 -31 -92 -45 -32 -21 -279 -286 -279 -299 0
-3 100 -93 221 -200 l222 -196 167 0 166 0 44 53 c69 84 103 167 108 262 7
138 4 142 -179 304 l-160 141 -82 0 c-55 -1 -100 -7 -136 -20z"/>
<path d="M3151 3753 c-162 -185 -174 -174 193 -171 l277 3 -144 127 c-79 70
-158 139 -175 153 l-30 25 -121 -137z"/>
<path d="M2440 3445 c0 -18 124 -294 130 -288 7 8 28 56 94 211 31 71 33 82
18 82 -13 0 -30 -29 -61 -102 -25 -57 -47 -107 -51 -111 -4 -4 -27 41 -52 100
-28 65 -53 109 -62 111 -9 2 -16 1 -16 -3z"/>
<path d="M3250 3300 c0 -127 2 -150 15 -150 12 0 15 14 15 69 l0 68 51 6 c74
9 99 28 99 77 0 62 -25 80 -110 80 l-70 0 0 -150z m136 109 c21 -17 17 -56 -8
-73 -12 -9 -39 -16 -60 -16 l-38 0 0 56 0 57 46 -7 c26 -3 53 -11 60 -17z"/>
<path d="M2794 3361 c-63 -39 -67 -143 -7 -190 31 -25 100 -28 129 -6 25 19
34 19 34 0 0 -8 5 -15 10 -15 6 0 10 45 10 115 0 70 -4 115 -10 115 -5 0 -10
-7 -10 -15 0 -19 -9 -19 -34 0 -27 21 -85 19 -122 -4z m123 -33 c46 -51 36
-115 -22 -142 -40 -19 -72 -10 -104 30 -28 35 -27 66 5 103 33 39 89 43 121 9z"/>
<path d="M3020 3374 c0 -4 16 -28 36 -55 l36 -49 -35 -47 c-49 -69 -51 -73
-30 -73 10 0 31 20 48 45 17 25 32 45 35 45 3 -1 20 -21 38 -45 18 -25 39 -45
47 -45 21 0 19 5 -26 65 l-41 55 36 49 c40 54 42 61 22 61 -8 0 -27 -18 -43
-40 -15 -22 -30 -39 -33 -39 -3 0 -17 18 -32 39 -24 34 -58 54 -58 34z"/>
<path d="M3544 3361 c-63 -39 -67 -143 -7 -190 31 -25 100 -28 129 -6 25 19
34 19 34 0 0 -8 5 -15 10 -15 6 0 10 45 10 115 0 70 -4 115 -10 115 -5 0 -10
-7 -10 -15 0 -19 -9 -19 -34 0 -27 21 -85 19 -122 -4z m123 -33 c46 -51 36
-115 -22 -142 -40 -19 -72 -10 -104 30 -28 35 -27 66 5 103 33 39 89 43 121 9z"/>
<path d="M3797 3362 c-10 -10 -17 -29 -17 -41 0 -23 40 -66 70 -76 22 -7 32
-39 17 -54 -15 -15 -50 -14 -65 1 -9 9 -15 9 -24 0 -17 -17 18 -41 59 -42 41
0 63 23 63 65 0 28 -7 38 -42 62 -48 32 -58 66 -20 71 13 2 29 -2 37 -8 10 -8
15 -8 21 1 10 16 -23 39 -56 39 -15 0 -34 -8 -43 -18z"/>
<path d="M3967 3362 c-10 -10 -17 -29 -17 -41 0 -23 40 -66 70 -76 22 -7 32
-39 17 -54 -15 -15 -50 -14 -65 1 -9 9 -15 9 -24 0 -17 -17 18 -41 59 -42 41
0 63 23 63 65 0 28 -7 38 -42 62 -48 32 -58 66 -20 71 13 2 29 -2 37 -8 10 -8
15 -8 21 1 10 16 -23 39 -56 39 -15 0 -34 -8 -43 -18z"/>
<path d="M2484 2995 c-27 -33 -34 -48 -26 -58 6 -7 85 -77 175 -157 l165 -144
-35 -43 -35 -43 -67 59 c-217 192 -286 251 -291 251 -13 0 -252 -282 -244
-289 194 -174 617 -541 624 -541 8 0 865 968 884 998 6 9 -58 12 -305 12
l-313 0 36 -37 37 -38 -34 -40 c-31 -36 -35 -38 -52 -24 -10 8 -50 43 -89 77
l-71 62 -161 0 -161 0 -37 -45z"/>
<path d="M2104 2131 c-82 -94 -149 -174 -149 -179 0 -12 180 -172 193 -172 8
0 251 269 300 332 11 14 1 26 -83 100 -53 45 -99 84 -104 86 -4 1 -75 -74
-157 -167z"/>
</g>
</svg>
